<mxfile host="app.diagrams.net" modified="2021-04-26T14:36:17.352Z" agent="5.0 (Windows NT 10.0; Win64; x64) AppleWebKit/537.36 (KHTML, like Gecko) Chrome/90.0.4430.85 Safari/537.36" etag="dmxyrGzIcvVQ2kxEbnTg" version="14.6.6" type="github">
  <diagram id="GAzzLvnzWxedh4U2tzIf" name="Page-1">
    <mxGraphModel dx="3934" dy="1537" grid="0" gridSize="10" guides="1" tooltips="1" connect="1" arrows="1" fold="1" page="0" pageScale="1" pageWidth="827" pageHeight="1169" math="0" shadow="0">
      <root>
        <mxCell id="0" />
        <mxCell id="1" parent="0" />
        <mxCell id="wP6hO-u23EZeWyiN89R9-22" value="" style="edgeStyle=orthogonalEdgeStyle;rounded=0;orthogonalLoop=1;jettySize=auto;html=1;fontSize=19;" parent="1" source="wP6hO-u23EZeWyiN89R9-2" target="wP6hO-u23EZeWyiN89R9-21" edge="1">
          <mxGeometry relative="1" as="geometry" />
        </mxCell>
        <mxCell id="wP6hO-u23EZeWyiN89R9-2" value="输入队列中获取数据帧" style="rounded=0;whiteSpace=wrap;html=1;fontSize=19;" parent="1" vertex="1">
          <mxGeometry x="320" y="150" width="130" height="30" as="geometry" />
        </mxCell>
        <mxCell id="wP6hO-u23EZeWyiN89R9-28" value="" style="edgeStyle=orthogonalEdgeStyle;rounded=0;orthogonalLoop=1;jettySize=auto;html=1;fontSize=19;" parent="1" source="wP6hO-u23EZeWyiN89R9-21" target="wP6hO-u23EZeWyiN89R9-23" edge="1">
          <mxGeometry relative="1" as="geometry" />
        </mxCell>
        <mxCell id="wP6hO-u23EZeWyiN89R9-30" value="" style="edgeStyle=orthogonalEdgeStyle;rounded=0;orthogonalLoop=1;jettySize=auto;html=1;fontSize=19;" parent="1" source="wP6hO-u23EZeWyiN89R9-21" target="wP6hO-u23EZeWyiN89R9-29" edge="1">
          <mxGeometry relative="1" as="geometry" />
        </mxCell>
        <mxCell id="wP6hO-u23EZeWyiN89R9-21" value="数据帧为空" style="rhombus;whiteSpace=wrap;html=1;fontSize=19;" parent="1" vertex="1">
          <mxGeometry x="315" y="200" width="140" height="50" as="geometry" />
        </mxCell>
        <mxCell id="wP6hO-u23EZeWyiN89R9-23" value="线程终止并退出" style="rounded=0;whiteSpace=wrap;html=1;fontSize=19;" parent="1" vertex="1">
          <mxGeometry x="480" y="210" width="120" height="35" as="geometry" />
        </mxCell>
        <mxCell id="wP6hO-u23EZeWyiN89R9-27" value="" style="edgeStyle=orthogonalEdgeStyle;rounded=0;orthogonalLoop=1;jettySize=auto;html=1;fontSize=19;" parent="1" target="wP6hO-u23EZeWyiN89R9-2" edge="1">
          <mxGeometry relative="1" as="geometry">
            <mxPoint x="385" y="120" as="sourcePoint" />
          </mxGeometry>
        </mxCell>
        <mxCell id="wP6hO-u23EZeWyiN89R9-35" value="" style="edgeStyle=orthogonalEdgeStyle;rounded=0;orthogonalLoop=1;jettySize=auto;html=1;fontSize=19;" parent="1" source="wP6hO-u23EZeWyiN89R9-29" target="wP6hO-u23EZeWyiN89R9-31" edge="1">
          <mxGeometry relative="1" as="geometry" />
        </mxCell>
        <mxCell id="wP6hO-u23EZeWyiN89R9-29" value="解析数据帧头部" style="whiteSpace=wrap;html=1;fontSize=19;" parent="1" vertex="1">
          <mxGeometry x="325" y="270" width="120" height="30" as="geometry" />
        </mxCell>
        <mxCell id="wP6hO-u23EZeWyiN89R9-33" value="" style="edgeStyle=orthogonalEdgeStyle;rounded=0;orthogonalLoop=1;jettySize=auto;html=1;fontSize=19;" parent="1" source="wP6hO-u23EZeWyiN89R9-31" target="wP6hO-u23EZeWyiN89R9-32" edge="1">
          <mxGeometry relative="1" as="geometry" />
        </mxCell>
        <mxCell id="wP6hO-u23EZeWyiN89R9-37" value="" style="edgeStyle=orthogonalEdgeStyle;rounded=0;orthogonalLoop=1;jettySize=auto;html=1;fontSize=19;" parent="1" source="wP6hO-u23EZeWyiN89R9-31" target="wP6hO-u23EZeWyiN89R9-36" edge="1">
          <mxGeometry relative="1" as="geometry" />
        </mxCell>
        <mxCell id="wP6hO-u23EZeWyiN89R9-31" value="解析成功" style="rhombus;whiteSpace=wrap;html=1;fontSize=19;" parent="1" vertex="1">
          <mxGeometry x="315" y="320" width="140" height="50" as="geometry" />
        </mxCell>
        <mxCell id="wP6hO-u23EZeWyiN89R9-32" value="丢弃数据帧" style="whiteSpace=wrap;html=1;fontSize=19;" parent="1" vertex="1">
          <mxGeometry x="480" y="327.5" width="120" height="35" as="geometry" />
        </mxCell>
        <mxCell id="wP6hO-u23EZeWyiN89R9-41" value="" style="edgeStyle=orthogonalEdgeStyle;rounded=0;orthogonalLoop=1;jettySize=auto;html=1;fontSize=19;" parent="1" source="wP6hO-u23EZeWyiN89R9-36" target="wP6hO-u23EZeWyiN89R9-40" edge="1">
          <mxGeometry relative="1" as="geometry" />
        </mxCell>
        <mxCell id="wP6hO-u23EZeWyiN89R9-36" value="执行Ingress流水线" style="whiteSpace=wrap;html=1;fontSize=19;" parent="1" vertex="1">
          <mxGeometry x="325" y="400" width="120" height="30" as="geometry" />
        </mxCell>
        <mxCell id="wP6hO-u23EZeWyiN89R9-43" value="" style="edgeStyle=orthogonalEdgeStyle;rounded=0;orthogonalLoop=1;jettySize=auto;html=1;fontSize=19;" parent="1" source="wP6hO-u23EZeWyiN89R9-40" target="wP6hO-u23EZeWyiN89R9-42" edge="1">
          <mxGeometry relative="1" as="geometry">
            <Array as="points">
              <mxPoint x="540" y="475" />
            </Array>
          </mxGeometry>
        </mxCell>
        <mxCell id="wP6hO-u23EZeWyiN89R9-51" value="" style="edgeStyle=orthogonalEdgeStyle;rounded=0;orthogonalLoop=1;jettySize=auto;html=1;fontSize=19;" parent="1" source="wP6hO-u23EZeWyiN89R9-40" target="wP6hO-u23EZeWyiN89R9-48" edge="1">
          <mxGeometry relative="1" as="geometry" />
        </mxCell>
        <mxCell id="wP6hO-u23EZeWyiN89R9-40" value="是否执行包复制" style="rhombus;whiteSpace=wrap;html=1;fontSize=19;" parent="1" vertex="1">
          <mxGeometry x="315" y="450" width="140" height="50" as="geometry" />
        </mxCell>
        <mxCell id="wP6hO-u23EZeWyiN89R9-42" value="将复制的数据帧传入整形队列" style="whiteSpace=wrap;html=1;fontSize=19;" parent="1" vertex="1">
          <mxGeometry x="490" y="520" width="165" height="35" as="geometry" />
        </mxCell>
        <mxCell id="wP6hO-u23EZeWyiN89R9-47" value="" style="edgeStyle=orthogonalEdgeStyle;rounded=0;orthogonalLoop=1;jettySize=auto;html=1;exitX=0;exitY=0.5;exitDx=0;exitDy=0;fontSize=19;" parent="1" source="wP6hO-u23EZeWyiN89R9-44" target="wP6hO-u23EZeWyiN89R9-46" edge="1">
          <mxGeometry relative="1" as="geometry">
            <mxPoint x="325" y="612.25" as="sourcePoint" />
          </mxGeometry>
        </mxCell>
        <mxCell id="wP6hO-u23EZeWyiN89R9-54" value="" style="edgeStyle=orthogonalEdgeStyle;rounded=0;orthogonalLoop=1;jettySize=auto;html=1;fontSize=19;" parent="1" source="wP6hO-u23EZeWyiN89R9-44" target="wP6hO-u23EZeWyiN89R9-53" edge="1">
          <mxGeometry relative="1" as="geometry" />
        </mxCell>
        <mxCell id="wP6hO-u23EZeWyiN89R9-44" value="是否执行组播" style="rhombus;whiteSpace=wrap;html=1;fontSize=19;" parent="1" vertex="1">
          <mxGeometry x="315" y="603.75" width="140" height="50" as="geometry" />
        </mxCell>
        <mxCell id="wP6hO-u23EZeWyiN89R9-61" value="" style="edgeStyle=orthogonalEdgeStyle;rounded=0;orthogonalLoop=1;jettySize=auto;html=1;entryX=0;entryY=0.5;entryDx=0;entryDy=0;fontSize=19;" parent="1" source="wP6hO-u23EZeWyiN89R9-46" target="wP6hO-u23EZeWyiN89R9-2" edge="1">
          <mxGeometry relative="1" as="geometry">
            <Array as="points">
              <mxPoint x="130" y="165" />
            </Array>
          </mxGeometry>
        </mxCell>
        <mxCell id="wP6hO-u23EZeWyiN89R9-46" value="执行组播，将数据帧复制入组播端口" style="whiteSpace=wrap;html=1;fontSize=19;" parent="1" vertex="1">
          <mxGeometry x="50" y="470" width="160" height="42.5" as="geometry" />
        </mxCell>
        <mxCell id="wP6hO-u23EZeWyiN89R9-50" value="" style="edgeStyle=orthogonalEdgeStyle;rounded=0;orthogonalLoop=1;jettySize=auto;html=1;fontSize=19;" parent="1" source="wP6hO-u23EZeWyiN89R9-48" target="wP6hO-u23EZeWyiN89R9-49" edge="1">
          <mxGeometry relative="1" as="geometry" />
        </mxCell>
        <mxCell id="wP6hO-u23EZeWyiN89R9-52" value="" style="edgeStyle=orthogonalEdgeStyle;rounded=0;orthogonalLoop=1;jettySize=auto;html=1;fontSize=19;" parent="1" source="wP6hO-u23EZeWyiN89R9-48" target="wP6hO-u23EZeWyiN89R9-44" edge="1">
          <mxGeometry relative="1" as="geometry" />
        </mxCell>
        <mxCell id="wP6hO-u23EZeWyiN89R9-48" value="是否执行包重传" style="rhombus;whiteSpace=wrap;html=1;fontSize=19;" parent="1" vertex="1">
          <mxGeometry x="315" y="527.25" width="140" height="50" as="geometry" />
        </mxCell>
        <mxCell id="wP6hO-u23EZeWyiN89R9-60" value="" style="edgeStyle=orthogonalEdgeStyle;rounded=0;orthogonalLoop=1;jettySize=auto;html=1;entryX=0;entryY=0.5;entryDx=0;entryDy=0;fontSize=19;" parent="1" source="wP6hO-u23EZeWyiN89R9-49" target="wP6hO-u23EZeWyiN89R9-2" edge="1">
          <mxGeometry relative="1" as="geometry">
            <mxPoint x="210" y="459.75" as="targetPoint" />
            <Array as="points">
              <mxPoint x="230" y="165" />
            </Array>
          </mxGeometry>
        </mxCell>
        <mxCell id="wP6hO-u23EZeWyiN89R9-49" value="将数据帧重新传入输入队列" style="whiteSpace=wrap;html=1;fontSize=19;" parent="1" vertex="1">
          <mxGeometry x="150" y="370" width="160" height="42.5" as="geometry" />
        </mxCell>
        <mxCell id="wP6hO-u23EZeWyiN89R9-56" value="" style="edgeStyle=orthogonalEdgeStyle;rounded=0;orthogonalLoop=1;jettySize=auto;html=1;entryX=1;entryY=0.5;entryDx=0;entryDy=0;fontSize=19;" parent="1" source="wP6hO-u23EZeWyiN89R9-53" target="wP6hO-u23EZeWyiN89R9-32" edge="1">
          <mxGeometry relative="1" as="geometry">
            <mxPoint x="550" y="528.75" as="targetPoint" />
            <Array as="points">
              <mxPoint x="730" y="345" />
            </Array>
          </mxGeometry>
        </mxCell>
        <mxCell id="wP6hO-u23EZeWyiN89R9-58" value="" style="edgeStyle=orthogonalEdgeStyle;rounded=0;orthogonalLoop=1;jettySize=auto;html=1;entryX=0.75;entryY=0;entryDx=0;entryDy=0;fontSize=19;" parent="1" source="wP6hO-u23EZeWyiN89R9-53" target="wP6hO-u23EZeWyiN89R9-42" edge="1">
          <mxGeometry relative="1" as="geometry">
            <mxPoint x="570" y="455" as="targetPoint" />
          </mxGeometry>
        </mxCell>
        <mxCell id="wP6hO-u23EZeWyiN89R9-53" value="是否执行组播" style="rhombus;whiteSpace=wrap;html=1;fontSize=19;" parent="1" vertex="1">
          <mxGeometry x="660" y="430" width="140" height="50" as="geometry" />
        </mxCell>
        <mxCell id="uvt-nXJzGqI3oDTQMF-i-5" value="" style="edgeStyle=orthogonalEdgeStyle;rounded=0;orthogonalLoop=1;jettySize=auto;html=1;fontSize=22;" parent="1" source="E7MRiYUUViuJMd0O78P3-2" target="E7MRiYUUViuJMd0O78P3-3" edge="1">
          <mxGeometry relative="1" as="geometry" />
        </mxCell>
        <mxCell id="E7MRiYUUViuJMd0O78P3-2" value="&lt;span style=&quot;font-size: 22px;&quot;&gt;输入线程启动&lt;/span&gt;" style="strokeWidth=1;html=1;shape=mxgraph.flowchart.terminator;whiteSpace=wrap;fontSize=22;" parent="1" vertex="1">
          <mxGeometry x="-966.5" y="-94" width="135" height="60" as="geometry" />
        </mxCell>
        <mxCell id="uvt-nXJzGqI3oDTQMF-i-6" value="" style="edgeStyle=orthogonalEdgeStyle;rounded=0;orthogonalLoop=1;jettySize=auto;html=1;fontSize=22;" parent="1" source="E7MRiYUUViuJMd0O78P3-3" target="E7MRiYUUViuJMd0O78P3-4" edge="1">
          <mxGeometry relative="1" as="geometry" />
        </mxCell>
        <mxCell id="E7MRiYUUViuJMd0O78P3-3" value="输入队列队首获取数据帧" style="rounded=0;whiteSpace=wrap;html=1;fontSize=22;" parent="1" vertex="1">
          <mxGeometry x="-1003" y="24" width="208" height="79" as="geometry" />
        </mxCell>
        <mxCell id="uvt-nXJzGqI3oDTQMF-i-2" value="Y" style="edgeStyle=orthogonalEdgeStyle;rounded=0;orthogonalLoop=1;jettySize=auto;html=1;fontSize=22;" parent="1" source="E7MRiYUUViuJMd0O78P3-4" target="uvt-nXJzGqI3oDTQMF-i-1" edge="1">
          <mxGeometry x="-0.5493" relative="1" as="geometry">
            <mxPoint x="-1" as="offset" />
          </mxGeometry>
        </mxCell>
        <mxCell id="uvt-nXJzGqI3oDTQMF-i-8" value="N" style="edgeStyle=orthogonalEdgeStyle;rounded=0;orthogonalLoop=1;jettySize=auto;html=1;fontSize=22;" parent="1" source="E7MRiYUUViuJMd0O78P3-4" target="uvt-nXJzGqI3oDTQMF-i-7" edge="1">
          <mxGeometry x="-0.552" relative="1" as="geometry">
            <mxPoint y="1" as="offset" />
          </mxGeometry>
        </mxCell>
        <mxCell id="E7MRiYUUViuJMd0O78P3-4" value="数据帧为空" style="rhombus;whiteSpace=wrap;html=1;fontSize=22;" parent="1" vertex="1">
          <mxGeometry x="-1006" y="130" width="213" height="108" as="geometry" />
        </mxCell>
        <mxCell id="uvt-nXJzGqI3oDTQMF-i-4" value="" style="edgeStyle=orthogonalEdgeStyle;rounded=0;orthogonalLoop=1;jettySize=auto;html=1;fontSize=22;" parent="1" source="uvt-nXJzGqI3oDTQMF-i-1" target="uvt-nXJzGqI3oDTQMF-i-3" edge="1">
          <mxGeometry relative="1" as="geometry" />
        </mxCell>
        <mxCell id="uvt-nXJzGqI3oDTQMF-i-1" value="线程终止退出" style="rounded=0;whiteSpace=wrap;html=1;fontSize=22;" parent="1" vertex="1">
          <mxGeometry x="-722" y="144.5" width="208" height="79" as="geometry" />
        </mxCell>
        <mxCell id="uvt-nXJzGqI3oDTQMF-i-3" value="&lt;span style=&quot;font-size: 22px;&quot;&gt;输入线程结束&lt;/span&gt;" style="strokeWidth=1;html=1;shape=mxgraph.flowchart.terminator;whiteSpace=wrap;fontSize=22;" parent="1" vertex="1">
          <mxGeometry x="-685.5" y="292" width="135" height="60" as="geometry" />
        </mxCell>
        <mxCell id="uvt-nXJzGqI3oDTQMF-i-10" value="" style="edgeStyle=orthogonalEdgeStyle;rounded=0;orthogonalLoop=1;jettySize=auto;html=1;fontSize=22;" parent="1" source="uvt-nXJzGqI3oDTQMF-i-7" target="uvt-nXJzGqI3oDTQMF-i-9" edge="1">
          <mxGeometry relative="1" as="geometry" />
        </mxCell>
        <mxCell id="uvt-nXJzGqI3oDTQMF-i-7" value="对数据帧头部进行解析" style="rounded=0;whiteSpace=wrap;html=1;fontSize=22;" parent="1" vertex="1">
          <mxGeometry x="-1003.5" y="276" width="208" height="79" as="geometry" />
        </mxCell>
        <mxCell id="uvt-nXJzGqI3oDTQMF-i-12" value="N" style="edgeStyle=orthogonalEdgeStyle;rounded=0;orthogonalLoop=1;jettySize=auto;html=1;fontSize=22;" parent="1" source="uvt-nXJzGqI3oDTQMF-i-9" target="uvt-nXJzGqI3oDTQMF-i-11" edge="1">
          <mxGeometry relative="1" as="geometry" />
        </mxCell>
        <mxCell id="uvt-nXJzGqI3oDTQMF-i-14" value="" style="edgeStyle=orthogonalEdgeStyle;rounded=0;orthogonalLoop=1;jettySize=auto;html=1;fontSize=22;" parent="1" source="uvt-nXJzGqI3oDTQMF-i-9" target="uvt-nXJzGqI3oDTQMF-i-13" edge="1">
          <mxGeometry relative="1" as="geometry" />
        </mxCell>
        <mxCell id="uvt-nXJzGqI3oDTQMF-i-9" value="数据帧头部解析成功" style="rhombus;whiteSpace=wrap;html=1;fontSize=22;" parent="1" vertex="1">
          <mxGeometry x="-1006" y="392" width="213" height="108" as="geometry" />
        </mxCell>
        <mxCell id="uvt-nXJzGqI3oDTQMF-i-11" value="丢弃数据帧" style="rounded=0;whiteSpace=wrap;html=1;fontSize=22;" parent="1" vertex="1">
          <mxGeometry x="-722" y="406.5" width="208" height="79" as="geometry" />
        </mxCell>
        <mxCell id="uvt-nXJzGqI3oDTQMF-i-16" value="" style="edgeStyle=orthogonalEdgeStyle;rounded=0;orthogonalLoop=1;jettySize=auto;html=1;fontSize=22;" parent="1" source="uvt-nXJzGqI3oDTQMF-i-13" target="uvt-nXJzGqI3oDTQMF-i-15" edge="1">
          <mxGeometry relative="1" as="geometry" />
        </mxCell>
        <mxCell id="uvt-nXJzGqI3oDTQMF-i-13" value="执行Ingress流水线" style="rounded=0;whiteSpace=wrap;html=1;fontSize=22;" parent="1" vertex="1">
          <mxGeometry x="-1003" y="538" width="208" height="79" as="geometry" />
        </mxCell>
        <mxCell id="uvt-nXJzGqI3oDTQMF-i-21" value="N" style="edgeStyle=orthogonalEdgeStyle;rounded=0;orthogonalLoop=1;jettySize=auto;html=1;fontSize=22;" parent="1" source="uvt-nXJzGqI3oDTQMF-i-15" target="uvt-nXJzGqI3oDTQMF-i-19" edge="1">
          <mxGeometry x="-0.7558" relative="1" as="geometry">
            <mxPoint as="offset" />
          </mxGeometry>
        </mxCell>
        <mxCell id="uvt-nXJzGqI3oDTQMF-i-26" value="Y" style="edgeStyle=orthogonalEdgeStyle;rounded=0;orthogonalLoop=1;jettySize=auto;html=1;fontSize=22;" parent="1" source="uvt-nXJzGqI3oDTQMF-i-15" target="uvt-nXJzGqI3oDTQMF-i-23" edge="1">
          <mxGeometry x="-0.7589" relative="1" as="geometry">
            <mxPoint as="offset" />
          </mxGeometry>
        </mxCell>
        <mxCell id="uvt-nXJzGqI3oDTQMF-i-15" value="是否执行帧复制" style="rhombus;whiteSpace=wrap;html=1;fontSize=22;" parent="1" vertex="1">
          <mxGeometry x="-1005.5" y="653.5" width="213" height="108" as="geometry" />
        </mxCell>
        <mxCell id="uvt-nXJzGqI3oDTQMF-i-22" value="N" style="edgeStyle=orthogonalEdgeStyle;rounded=0;orthogonalLoop=1;jettySize=auto;html=1;fontSize=22;" parent="1" source="uvt-nXJzGqI3oDTQMF-i-19" target="uvt-nXJzGqI3oDTQMF-i-20" edge="1">
          <mxGeometry x="-0.6032" y="-1" relative="1" as="geometry">
            <mxPoint as="offset" />
          </mxGeometry>
        </mxCell>
        <mxCell id="uvt-nXJzGqI3oDTQMF-i-29" value="Y" style="edgeStyle=orthogonalEdgeStyle;rounded=0;orthogonalLoop=1;jettySize=auto;html=1;entryX=0.5;entryY=1;entryDx=0;entryDy=0;fontSize=22;" parent="1" source="uvt-nXJzGqI3oDTQMF-i-19" target="uvt-nXJzGqI3oDTQMF-i-27" edge="1">
          <mxGeometry x="-0.9365" relative="1" as="geometry">
            <mxPoint x="-1132" y="967" as="targetPoint" />
            <mxPoint as="offset" />
          </mxGeometry>
        </mxCell>
        <mxCell id="uvt-nXJzGqI3oDTQMF-i-19" value="是否执行帧重传" style="rhombus;whiteSpace=wrap;html=1;fontSize=22;" parent="1" vertex="1">
          <mxGeometry x="-1005.5" y="807" width="213" height="108" as="geometry" />
        </mxCell>
        <mxCell id="uvt-nXJzGqI3oDTQMF-i-35" value="Y" style="edgeStyle=orthogonalEdgeStyle;rounded=0;orthogonalLoop=1;jettySize=auto;html=1;fontSize=22;" parent="1" source="uvt-nXJzGqI3oDTQMF-i-20" target="uvt-nXJzGqI3oDTQMF-i-34" edge="1">
          <mxGeometry x="-0.7882" relative="1" as="geometry">
            <mxPoint as="offset" />
          </mxGeometry>
        </mxCell>
        <mxCell id="uvt-nXJzGqI3oDTQMF-i-37" value="N" style="edgeStyle=orthogonalEdgeStyle;rounded=0;orthogonalLoop=1;jettySize=auto;html=1;fontSize=22;" parent="1" source="uvt-nXJzGqI3oDTQMF-i-20" target="uvt-nXJzGqI3oDTQMF-i-36" edge="1">
          <mxGeometry x="-0.7465" relative="1" as="geometry">
            <mxPoint as="offset" />
          </mxGeometry>
        </mxCell>
        <mxCell id="uvt-nXJzGqI3oDTQMF-i-20" value="是否执行组播" style="rhombus;whiteSpace=wrap;html=1;fontSize=22;" parent="1" vertex="1">
          <mxGeometry x="-1006" y="980" width="213" height="108" as="geometry" />
        </mxCell>
        <mxCell id="uvt-nXJzGqI3oDTQMF-i-25" value="" style="edgeStyle=orthogonalEdgeStyle;rounded=0;orthogonalLoop=1;jettySize=auto;html=1;entryX=1;entryY=0.5;entryDx=0;entryDy=0;fontSize=22;" parent="1" source="uvt-nXJzGqI3oDTQMF-i-23" target="uvt-nXJzGqI3oDTQMF-i-19" edge="1">
          <mxGeometry relative="1" as="geometry">
            <mxPoint x="-606" y="926.5" as="targetPoint" />
            <Array as="points">
              <mxPoint x="-606" y="861" />
            </Array>
          </mxGeometry>
        </mxCell>
        <mxCell id="uvt-nXJzGqI3oDTQMF-i-23" value="将复制的帧传入对应出端口的整形队列" style="rounded=0;whiteSpace=wrap;html=1;fontSize=22;" parent="1" vertex="1">
          <mxGeometry x="-722" y="668" width="208" height="79" as="geometry" />
        </mxCell>
        <mxCell id="uvt-nXJzGqI3oDTQMF-i-31" value="" style="edgeStyle=orthogonalEdgeStyle;rounded=0;orthogonalLoop=1;jettySize=auto;html=1;entryX=0.003;entryY=0.396;entryDx=0;entryDy=0;entryPerimeter=0;fontSize=22;" parent="1" source="uvt-nXJzGqI3oDTQMF-i-27" target="E7MRiYUUViuJMd0O78P3-3" edge="1">
          <mxGeometry relative="1" as="geometry">
            <mxPoint x="-1192" y="672" as="targetPoint" />
            <Array as="points">
              <mxPoint x="-1192" y="55" />
            </Array>
          </mxGeometry>
        </mxCell>
        <mxCell id="uvt-nXJzGqI3oDTQMF-i-27" value="将数据帧重新传入输入队列" style="rounded=0;whiteSpace=wrap;html=1;fontSize=22;" parent="1" vertex="1">
          <mxGeometry x="-1296" y="480" width="208" height="79" as="geometry" />
        </mxCell>
        <mxCell id="uvt-nXJzGqI3oDTQMF-i-34" value="执行组播，将数据帧复制入组播端口" style="rounded=0;whiteSpace=wrap;html=1;fontSize=22;" parent="1" vertex="1">
          <mxGeometry x="-1299" y="994.5" width="208" height="79" as="geometry" />
        </mxCell>
        <mxCell id="uvt-nXJzGqI3oDTQMF-i-36" value="处理输入队列中下一数据帧" style="rounded=0;whiteSpace=wrap;html=1;fontSize=22;" parent="1" vertex="1">
          <mxGeometry x="-722" y="994.5" width="208" height="79" as="geometry" />
        </mxCell>
      </root>
    </mxGraphModel>
  </diagram>
</mxfile>
